<svg xmlns="http://www.w3.org/2000/svg" viewBox="0 0 1024 381" role="img" aria-labelledby="title">
  <title id="title">Assu-Med</title>
  <rect width="1024" height="381" fill="#ffffff"/>
  <g transform="translate(110 0) scale(0.58 1)">
    <path
      d="M228 104c-13-45 31-78 84-80 61-2 99 54 127 54 25 0 61-53 121-48 53 4 84 38 77 83-8 50-58 74-119 69-45-4-80-21-116-49-28 27-50 52-78 78l-66 62c-28 27-78 27-103 8-27-21-16-53 19-59 32-5 74 7 98 30l53-50c-45-26-82-54-97-98z"
      fill="none"
      stroke="#8c1021"
      stroke-width="15"
      stroke-linecap="round"
      stroke-linejoin="round"
    />
    <path
      d="M285 138h70l25-33 34 56 42-57 34 41h83"
      fill="none"
      stroke="#8c1021"
      stroke-width="15"
      stroke-linecap="round"
      stroke-linejoin="round"
    />
  </g>
  <text
    x="388"
    y="211"
    fill="#078aa3"
    font-family="Arial, Helvetica, sans-serif"
    font-size="78"
    font-weight="800"
    letter-spacing="0"
  >ASSU-MED</text>
</svg>
